<svg width="390" height="391" viewBox="0 0 390 391" fill="none" xmlns="http://www.w3.org/2000/svg">
<rect width="390" height="390.954" rx="24" fill="white"/>
<path d="M57.9057 319.872C58.909 320.134 59.9749 319.99 60.8723 319.47C61.7697 318.95 62.4264 318.097 62.7001 317.095C70.769 286.948 103.562 279.135 123.162 274.46C128.074 273.291 131.952 272.365 134.474 271.275C156.801 261.571 164.079 245.96 166.256 234.57C166.386 233.892 166.335 233.192 166.108 232.541C165.881 231.889 165.486 231.309 164.964 230.859C153.338 220.81 143.53 205.725 137.341 188.372C137.165 187.875 136.891 187.419 136.535 187.031C128.348 178.119 123.648 168.698 123.648 161.191C123.648 156.805 125.301 153.864 129.022 151.644C129.579 151.31 130.045 150.843 130.377 150.284C130.71 149.725 130.898 149.093 130.925 148.443C132.657 108.482 161.078 77.0251 195.939 76.8211L196.777 76.876C231.81 77.3624 260.052 109.494 261.062 150.02C261.077 150.573 261.209 151.118 261.45 151.617C261.69 152.116 262.033 152.558 262.457 152.914C264.909 154.993 266.052 157.629 266.052 161.206C266.052 167.49 262.707 175.217 256.644 182.952C256.352 183.322 256.129 183.742 255.986 184.191C249.719 204.085 238.469 221.649 225.136 232.397C224.582 232.842 224.16 233.43 223.914 234.098C223.669 234.765 223.609 235.487 223.742 236.186C225.919 247.568 233.197 263.171 255.524 272.891C258.164 274.036 262.261 274.93 267.455 276.052C286.859 280.257 319.331 287.309 327.298 317.095C327.432 317.593 327.662 318.059 327.976 318.468C328.289 318.876 328.68 319.219 329.126 319.476C329.572 319.733 330.064 319.9 330.574 319.966C331.085 320.033 331.603 319.999 332.1 319.865C332.597 319.731 333.063 319.5 333.47 319.186C333.878 318.872 334.22 318.48 334.477 318.034C334.734 317.587 334.9 317.094 334.967 316.583C335.034 316.073 334.999 315.553 334.865 315.056C325.661 280.641 288.873 272.663 269.115 268.38C264.533 267.384 260.576 266.529 258.649 265.682C244.078 259.343 235.101 249.686 231.928 236.931C245.457 225.297 256.777 207.349 263.248 187.219C270.118 178.276 273.894 169.067 273.894 161.198C273.894 155.95 272.202 151.573 268.849 148.153C266.985 104.191 235.657 69.5727 196.777 69.0157L195.61 69C157.435 69.204 125.974 102.913 123.225 146.113C118.321 149.722 115.83 154.781 115.83 161.206C115.83 170.486 121.07 181.587 130.244 191.769C136.582 209.208 146.405 224.528 158.101 235.252C154.944 248.055 145.959 257.743 131.356 264.089C129.468 264.913 125.708 265.815 121.352 266.85C101.447 271.589 64.4079 280.414 55.1325 315.072C54.8646 316.076 55.0063 317.147 55.5264 318.047C56.0464 318.947 56.9023 319.604 57.9057 319.872Z" fill="#EEF4F8"/>
</svg>
